<mxfile host="Electron" agent="Mozilla/5.0 (Macintosh; Intel Mac OS X 10_15_7) AppleWebKit/537.36 (KHTML, like Gecko) draw.io/24.7.17 Chrome/128.0.6613.36 Electron/32.0.1 Safari/537.36" version="24.7.17">
  <diagram name="Page-1" id="ReVnqhqulLi_3nOzk2kV">
    <mxGraphModel dx="1114" dy="806" grid="1" gridSize="10" guides="1" tooltips="1" connect="1" arrows="1" fold="1" page="1" pageScale="1" pageWidth="827" pageHeight="1169" math="0" shadow="0">
      <root>
        <mxCell id="0" />
        <mxCell id="1" parent="0" />
        <mxCell id="hurOadFFnsT3vhvVJBR6-1" value="view-server" style="rounded=0;whiteSpace=wrap;html=1;verticalAlign=top;fillColor=#e1d5e7;strokeColor=#9673a6;" vertex="1" parent="1">
          <mxGeometry x="130" y="180" width="660" height="110" as="geometry" />
        </mxCell>
        <mxCell id="hurOadFFnsT3vhvVJBR6-2" value="Automated Curation&lt;div&gt;OMVS&lt;/div&gt;" style="rounded=0;whiteSpace=wrap;html=1;" vertex="1" parent="1">
          <mxGeometry x="520" y="210" width="120" height="60" as="geometry" />
        </mxCell>
        <mxCell id="hurOadFFnsT3vhvVJBR6-3" value="Asset Catalog&lt;div&gt;OMVS&lt;/div&gt;" style="rounded=0;whiteSpace=wrap;html=1;" vertex="1" parent="1">
          <mxGeometry x="160" y="210" width="120" height="60" as="geometry" />
        </mxCell>
        <mxCell id="hurOadFFnsT3vhvVJBR6-4" value="Runtime Manager&lt;div&gt;OMVS&lt;/div&gt;" style="rounded=0;whiteSpace=wrap;html=1;" vertex="1" parent="1">
          <mxGeometry x="400" y="210" width="120" height="60" as="geometry" />
        </mxCell>
        <mxCell id="hurOadFFnsT3vhvVJBR6-5" value="Feedback Manager&lt;div&gt;OMVS&lt;/div&gt;" style="rounded=0;whiteSpace=wrap;html=1;" vertex="1" parent="1">
          <mxGeometry x="280" y="210" width="120" height="60" as="geometry" />
        </mxCell>
        <mxCell id="hurOadFFnsT3vhvVJBR6-6" value="postgres-metadata-store" style="rounded=0;whiteSpace=wrap;html=1;verticalAlign=bottom;fillColor=#d5e8d4;strokeColor=#82b366;" vertex="1" parent="1">
          <mxGeometry x="376" y="400" width="410" height="110" as="geometry" />
        </mxCell>
        <mxCell id="hurOadFFnsT3vhvVJBR6-7" value="Metadata Explorer&lt;div&gt;OMVS&lt;/div&gt;" style="rounded=0;whiteSpace=wrap;html=1;" vertex="1" parent="1">
          <mxGeometry x="640" y="210" width="120" height="60" as="geometry" />
        </mxCell>
        <mxCell id="hurOadFFnsT3vhvVJBR6-8" value="xtdb-kv-metadata-store" style="rounded=0;whiteSpace=wrap;html=1;verticalAlign=bottom;fillColor=#d5e8d4;strokeColor=#82b366;" vertex="1" parent="1">
          <mxGeometry x="170" y="400" width="190" height="110" as="geometry" />
        </mxCell>
        <mxCell id="hurOadFFnsT3vhvVJBR6-10" value="Asset Consumer&lt;div&gt;OMAS&lt;/div&gt;" style="rounded=0;whiteSpace=wrap;html=1;" vertex="1" parent="1">
          <mxGeometry x="210" y="420" width="120" height="60" as="geometry" />
        </mxCell>
        <mxCell id="hurOadFFnsT3vhvVJBR6-13" value="&lt;div&gt;IT Infrastructure OMAS&lt;/div&gt;" style="rounded=0;whiteSpace=wrap;html=1;" vertex="1" parent="1">
          <mxGeometry x="390" y="420" width="120" height="60" as="geometry" />
        </mxCell>
        <mxCell id="hurOadFFnsT3vhvVJBR6-14" value="&lt;div&gt;Asset Owner&lt;/div&gt;&lt;div&gt;OMAS&lt;/div&gt;" style="rounded=0;whiteSpace=wrap;html=1;" vertex="1" parent="1">
          <mxGeometry x="520" y="420" width="120" height="60" as="geometry" />
        </mxCell>
        <mxCell id="hurOadFFnsT3vhvVJBR6-15" value="Asset Consumer&lt;div&gt;OMAS&lt;/div&gt;" style="rounded=0;whiteSpace=wrap;html=1;" vertex="1" parent="1">
          <mxGeometry x="650" y="420" width="120" height="60" as="geometry" />
        </mxCell>
        <mxCell id="hurOadFFnsT3vhvVJBR6-17" style="edgeStyle=orthogonalEdgeStyle;rounded=0;orthogonalLoop=1;jettySize=auto;html=1;exitX=0.5;exitY=1;exitDx=0;exitDy=0;entryX=0.5;entryY=0;entryDx=0;entryDy=0;" edge="1" parent="1" source="hurOadFFnsT3vhvVJBR6-2" target="hurOadFFnsT3vhvVJBR6-14">
          <mxGeometry relative="1" as="geometry" />
        </mxCell>
        <mxCell id="hurOadFFnsT3vhvVJBR6-16" style="edgeStyle=orthogonalEdgeStyle;rounded=0;orthogonalLoop=1;jettySize=auto;html=1;exitX=0.5;exitY=1;exitDx=0;exitDy=0;" edge="1" parent="1" source="hurOadFFnsT3vhvVJBR6-4" target="hurOadFFnsT3vhvVJBR6-13">
          <mxGeometry relative="1" as="geometry" />
        </mxCell>
        <mxCell id="hurOadFFnsT3vhvVJBR6-18" style="edgeStyle=orthogonalEdgeStyle;rounded=0;orthogonalLoop=1;jettySize=auto;html=1;exitX=0.5;exitY=1;exitDx=0;exitDy=0;entryX=0.5;entryY=0;entryDx=0;entryDy=0;" edge="1" parent="1" source="hurOadFFnsT3vhvVJBR6-7" target="hurOadFFnsT3vhvVJBR6-15">
          <mxGeometry relative="1" as="geometry" />
        </mxCell>
        <mxCell id="hurOadFFnsT3vhvVJBR6-11" style="edgeStyle=orthogonalEdgeStyle;rounded=0;orthogonalLoop=1;jettySize=auto;html=1;exitX=0.5;exitY=1;exitDx=0;exitDy=0;entryX=0.25;entryY=0;entryDx=0;entryDy=0;" edge="1" parent="1" source="hurOadFFnsT3vhvVJBR6-3" target="hurOadFFnsT3vhvVJBR6-10">
          <mxGeometry relative="1" as="geometry" />
        </mxCell>
        <mxCell id="hurOadFFnsT3vhvVJBR6-12" style="edgeStyle=orthogonalEdgeStyle;rounded=0;orthogonalLoop=1;jettySize=auto;html=1;exitX=0.5;exitY=1;exitDx=0;exitDy=0;entryX=0.75;entryY=0;entryDx=0;entryDy=0;" edge="1" parent="1" source="hurOadFFnsT3vhvVJBR6-5" target="hurOadFFnsT3vhvVJBR6-10">
          <mxGeometry relative="1" as="geometry" />
        </mxCell>
        <mxCell id="hurOadFFnsT3vhvVJBR6-19" value="Metadata Access&lt;div&gt;Stores&lt;/div&gt;" style="text;html=1;align=center;verticalAlign=middle;resizable=0;points=[];autosize=1;strokeColor=none;fillColor=none;" vertex="1" parent="1">
          <mxGeometry x="20" y="450" width="110" height="40" as="geometry" />
        </mxCell>
        <mxCell id="hurOadFFnsT3vhvVJBR6-20" value="View&lt;div&gt;Server&lt;/div&gt;" style="text;html=1;align=center;verticalAlign=middle;resizable=0;points=[];autosize=1;strokeColor=none;fillColor=none;" vertex="1" parent="1">
          <mxGeometry x="40" y="213" width="60" height="40" as="geometry" />
        </mxCell>
      </root>
    </mxGraphModel>
  </diagram>
</mxfile>
